/* XPM */
static char * new_xpm[] = {
"24 24 202 2",
"  	c None",
". 	c #8CA7DE",
"+ 	c #BED0EC",
"@ 	c #C1D3ED",
"# 	c #C1D1EC",
"$ 	c #C1D0EA",
"% 	c #C0CEE8",
"& 	c #BFCCE6",
"* 	c #BECBE4",
"= 	c #BEC9E1",
"- 	c #BDC7DF",
"; 	c #BDC5DD",
"> 	c #A6AECE",
", 	c #7681B3",
"' 	c #8582B8",
") 	c #95A3E0",
"! 	c #FEFEFF",
"~ 	c #FFFFFF",
"{ 	c #D9DBE9",
"] 	c #8BC5F1",
"^ 	c #F8FAFD",
"/ 	c #D0D4E5",
"( 	c #8CC3EF",
"_ 	c #6CBAF3",
": 	c #FCFDFF",
"< 	c #F9FEFF",
"[ 	c #CBD1E5",
"} 	c #8DC4EF",
"| 	c #6DBBF3",
"1 	c #50B4F8",
"2 	c #94A1DD",
"3 	c #F8F9FC",
"4 	c #FBFDFF",
"5 	c #F4F9FD",
"6 	c #F3FBFF",
"7 	c #C6CEE3",
"8 	c #85B5E3",
"9 	c #6AADE5",
"0 	c #54A6E9",
"a 	c #39A0EF",
"b 	c #939DDA",
"c 	c #F7F9FC",
"d 	c #FCFEFF",
"e 	c #EEF5FC",
"f 	c #EBF5FC",
"g 	c #D1DDEE",
"h 	c #7681B2",
"i 	c #7680AD",
"j 	c #767FAA",
"k 	c #767FAB",
"l 	c #777FAF",
"m 	c #919AD5",
"n 	c #F5FAFD",
"o 	c #EFF6FC",
"p 	c #E9F2FA",
"q 	c #E2EFFA",
"r 	c #DEEDFA",
"s 	c #DBEEFB",
"t 	c #C9DBE7",
"u 	c #AFBDC8",
"v 	c #A2B0BA",
"w 	c #9DACB7",
"x 	c #837EA0",
"y 	c #9097D1",
"z 	c #F5F9FE",
"A 	c #EFF5FC",
"B 	c #E9F2FB",
"C 	c #E3F0FA",
"D 	c #DDECF9",
"E 	c #D7E9F8",
"F 	c #D1E6F8",
"G 	c #CCE4F6",
"H 	c #C0D9EB",
"I 	c #ABC1D1",
"J 	c #97A8B5",
"K 	c #817C9C",
"L 	c #8F93CD",
"M 	c #F7F8FB",
"N 	c #EAF2FB",
"O 	c #E3EFFA",
"P 	c #CBE3F6",
"Q 	c #C6E1F5",
"R 	c #C0DEF4",
"S 	c #BADBF3",
"T 	c #A7C4D9",
"U 	c #837EA4",
"V 	c #8D90CA",
"W 	c #F0F6FC",
"X 	c #EAF2FA",
"Y 	c #E4F0FA",
"Z 	c #D8EAF8",
"` 	c #D2E6F8",
" .	c #C6E1F6",
"..	c #C0DEF5",
"+.	c #BBDCF4",
"@.	c #B6DAF4",
"#.	c #AED5F1",
"$.	c #8682B5",
"%.	c #8C8DC6",
"&.	c #F4F9FE",
"*.	c #EAF3FB",
"=.	c #DDEDF9",
"-.	c #D2E7F8",
";.	c #CDE4F6",
">.	c #C1DEF5",
",.	c #B5D9F3",
"'.	c #B0D7F2",
").	c #A8D2F0",
"!.	c #8683B9",
"~.	c #8A89C2",
"{.	c #FEFFFF",
"].	c #F6FAFE",
"^.	c #D8E9F9",
"/.	c #C7E1F5",
"(.	c #BCDCF4",
"_.	c #B6D9F3",
":.	c #ABD5F2",
"<.	c #A4CFEF",
"[.	c #8582B9",
"}.	c #8986BE",
"|.	c #F4F6FA",
"1.	c #F8FCFE",
"2.	c #D8E9F8",
"3.	c #D2E7F7",
"4.	c #C2DEF5",
"5.	c #B0D7F1",
"6.	c #AAD4F1",
"7.	c #A5D2F1",
"8.	c #9ECDEE",
"9.	c #8481B8",
"0.	c #8883BB",
"a.	c #EEF2F8",
"b.	c #F1F8FD",
"c.	c #EAF3FA",
"d.	c #E3EFF9",
"e.	c #D2E6F7",
"f.	c #C1DFF4",
"g.	c #B0D6F2",
"h.	c #A4D1F0",
"i.	c #9FD0F0",
"j.	c #98CBED",
"k.	c #8381B8",
"l.	c #8680B7",
"m.	c #E8EFF7",
"n.	c #ECF5FC",
"o.	c #E4EFFA",
"p.	c #D3E7F7",
"q.	c #C1DFF5",
"r.	c #B7D9F3",
"s.	c #ABD4F1",
"t.	c #A5D2F0",
"u.	c #9FCFF0",
"v.	c #9ACDEF",
"w.	c #96CAED",
"x.	c #857BB2",
"y.	c #E3ECF5",
"z.	c #E6F2FB",
"A.	c #DEEDF9",
"B.	c #B1D7F2",
"C.	c #A0CFF0",
"D.	c #99CCEE",
"E.	c #97CDEF",
"F.	c #96CBED",
"G.	c #8378AF",
"H.	c #DDE9F5",
"I.	c #E0EFFB",
"J.	c #D9EAF8",
"K.	c #C8E1F5",
"L.	c #C2DEF4",
"M.	c #ACD4F1",
"N.	c #A6D2F1",
"O.	c #97CCEE",
"P.	c #8377AE",
"Q.	c #D8E6F4",
"R.	c #DAECFA",
"S.	c #D3E7F8",
"T.	c #C2DFF5",
"U.	c #9ACDEE",
"V.	c #8277AE",
"W.	c #D2E3F3",
"X.	c #D4E9F9",
"Y.	c #CEE0F2",
"Z.	c #CFE7F8",
"`.	c #C8E2F5",
" +	c #B7DAF3",
".+	c #C8DEF2",
"++	c #CAE3F7",
"@+	c #B6DAF3",
"#+	c #8177AE",
"$+	c #C4DDF3",
"%+	c #C6E3F8",
"&+	c #BFDFF6",
"*+	c #B8DCF5",
"=+	c #B2D9F4",
"-+	c #ACD7F3",
";+	c #A7D4F3",
">+	c #A0D2F2",
",+	c #9ACFF0",
"'+	c #98CEF0",
")+	c #98CFF1",
"!+	c #797CA9",
"~+	c #8381B7",
"                                                ",
"      . + @ @ # $ % & * = - ; > , '             ",
"      ) ! ~ ~ ~ ~ ~ ~ ~ ~ ~ ~ { , ] '           ",
"      ) ^ ~ ~ ~ ~ ~ ~ ~ ~ ~ ~ / , ( _ '         ",
"      ) ^ ~ ~ ~ ~ ~ ~ ~ ~ : < [ , } | 1 '       ",
"      2 3 ~ ~ ~ ~ ~ ~ ~ 4 5 6 7 , 8 9 0 a '     ",
"      b c ~ ~ ~ ~ ~ ~ d 5 e f g h i j k k l     ",
"      m c ~ ~ ~ ~ ~ : n o p q r s t u v w x     ",
"      y c ~ ~ ~ ~ d z A B C D E F G H I J K     ",
"      L M ~ ~ ~ d z o N O D E F P Q R S T U     ",
"      V M ~ ~ : z W X Y D Z ` G  ...+.@.#.$.    ",
"      %.M ~ d &.o *.O =.E -.;.Q >.+.,.'.).!.    ",
"      ~.M {.].A X C D ^.-.;./.>.(._.'.:.<.[.    ",
"      }.|.1.W X Y =.2.3.G /.4.+._.5.6.7.8.9.    ",
"      0.a.b.c.d.D 2.e.G Q f.(._.g.6.h.i.j.k.    ",
"      l.m.n.o.D 2.p.;./.q.(.r.5.s.t.u.v.w.k.    ",
"      x.y.z.A.E 3.;./.q.+._.B.s.7.C.D.E.F.k.    ",
"      G.H.I.J.e.;.K.L.(._.B.M.N.C.D.O.E.F.k.    ",
"      P.Q.R.S.G /.T.(._.'.s.N.C.U.O.O.E.F.k.    ",
"      V.W.X.;./.>.(._.'.6.7.C.D.O.O.O.E.F.k.    ",
"      V.Y.Z.`.4.(. +B.s.7.C.v.O.O.O.O.E.F.k.    ",
"      V..+++T.(.@+B.s.7.u.v.O.O.O.O.O.E.F.k.    ",
"      #+$+%+&+*+=+-+;+>+,+'+'+'+'+'+'+)+E.k.    ",
"      !+~+~+~+~+~+~+~+~+~+~+~+~+~+~+~+~+~+~+    "};
