/* XPM */
static char * newelement_xpm[] = {
"24 24 214 2",
"  	c None",
". 	c #FEF258",
"+ 	c #FEF04B",
"@ 	c #FEF25E",
"# 	c #FEF484",
"$ 	c #FEF68E",
"% 	c #FEF261",
"& 	c #FFEF49",
"* 	c #FEF46D",
"= 	c #FEF46F",
"- 	c #FEF691",
"; 	c #FEF7A9",
"> 	c #FEF8B9",
", 	c #FEF8B8",
"' 	c #FEF7A2",
") 	c #FEF371",
"! 	c #FEF269",
"~ 	c #FEF8B2",
"{ 	c #FEF9D1",
"] 	c #FEFCEB",
"^ 	c #FEFBE9",
"/ 	c #FEF9C8",
"( 	c #FEF7A6",
"_ 	c #FEF267",
": 	c #FEF25D",
"< 	c #FEF259",
"[ 	c #FEF36B",
"} 	c #FEF7AD",
"| 	c #FEFADE",
"1 	c #FEFEFD",
"2 	c #FEFDFC",
"3 	c #FEFAD8",
"4 	c #FEF7A5",
"5 	c #FEF04F",
"6 	c #FEF575",
"7 	c #FEF584",
"8 	c #FEF7B0",
"9 	c #FEFAD5",
"0 	c #FEFCF2",
"a 	c #FEFCEF",
"b 	c #FEF9CF",
"c 	c #FEF7A4",
"d 	c #FEF153",
"e 	c #FEF263",
"f 	c #FEF68F",
"g 	c #FEF9C4",
"h 	c #FEF9C3",
"i 	c #FEF585",
"j 	c #FEF367",
"k 	c #FEF46C",
"l 	c #FEFAC8",
"m 	c #FDF9D2",
"n 	c #FBF6BF",
"o 	c #FAF498",
"p 	c #FCF169",
"q 	c #FEF36D",
"r 	c #FEF695",
"s 	c #FEF481",
"t 	c #FEF157",
"u 	c #FDFBE8",
"v 	c #F9F7DF",
"w 	c #DEDBB6",
"x 	c #EEEBBA",
"y 	c #F2EDB7",
"z 	c #F1ECA6",
"A 	c #F4EB87",
"B 	c #FBEF58",
"C 	c #FEF050",
"D 	c #FEF048",
"E 	c #FEFDF8",
"F 	c #FBFAF3",
"G 	c #F8F7EC",
"H 	c #DCDACF",
"I 	c #AFADA0",
"J 	c #C1BFA3",
"K 	c #E9E5C4",
"L 	c #E9E6BE",
"M 	c #EBE6B0",
"N 	c #E7E2A8",
"O 	c #E8E29B",
"P 	c #ECE486",
"Q 	c #FDFDFD",
"R 	c #FAFAFB",
"S 	c #F6F5F6",
"T 	c #C3C3C3",
"U 	c #A5A4A5",
"V 	c #B9B8B4",
"W 	c #E8E6DB",
"X 	c #D3D2C3",
"Y 	c #B1AF9D",
"Z 	c #CCC9A7",
"` 	c #DFDBB9",
" .	c #DDD9B1",
"..	c #DBD7AB",
"+.	c #DBD6A6",
"@.	c #D7D2A3",
"#.	c #DBD48C",
"$.	c #FCFCFD",
"%.	c #F5F5F8",
"&.	c #D1D1D7",
"*.	c #B4B4BD",
"=.	c #CDCDD2",
"-.	c #E5E5E5",
";.	c #D5D4D3",
">.	c #9E9D9B",
",.	c #B2B1AB",
"'.	c #D3D2C2",
").	c #D4D1BD",
"!.	c #B3B09C",
"~.	c #BEBBA3",
"{.	c #CFCCB2",
"].	c #CAC7AB",
"^.	c #C6C3AA",
"/.	c #C2BFA8",
"(.	c #CBC898",
"_.	c #FBFBFC",
":.	c #F7F7F9",
"<.	c #F4F4F6",
"[.	c #D5D5DB",
"}.	c #A2A2AC",
"|.	c #B0B0B9",
"1.	c #DFDFE6",
"2.	c #CDCDD5",
"3.	c #9B9BA4",
"4.	c #ADADB1",
"5.	c #CECDCF",
"6.	c #D3D2CF",
"7.	c #B9B8B2",
"8.	c #97958F",
"9.	c #C1BFB5",
"0.	c #C8C5B9",
"a.	c #AFAD9F",
"b.	c #A7A491",
"c.	c #BEBCAD",
"d.	c #B9B7AC",
"e.	c #B5B2AC",
"f.	c #B3B1A9",
"g.	c #AEACA6",
"h.	c #F8F8F9",
"i.	c #F2F2F5",
"j.	c #EEEEF2",
"k.	c #EAEAEF",
"l.	c #BFBFC8",
"m.	c #E2E2E9",
"n.	c #D6D6DF",
"o.	c #ADADB8",
"p.	c #9B9BA8",
"q.	c #D2D2DD",
"r.	c #CECED8",
"s.	c #C1C1C8",
"t.	c #909094",
"u.	c #AEADAF",
"v.	c #C2C0C1",
"w.	c #B2B1B0",
"x.	c #939290",
"y.	c #A6A4A2",
"z.	c #B5B3B1",
"A.	c #B1AFAF",
"B.	c #ADABAC",
"C.	c #A8A6AB",
"D.	c #A4A3A9",
"E.	c #A5A4A4",
"F.	c #E6E6EC",
"G.	c #E1E1E8",
"H.	c #DDDDE6",
"I.	c #D9D9E2",
"J.	c #C6C6D0",
"K.	c #C3C3CF",
"L.	c #CCCCD9",
"M.	c #C4C4D1",
"N.	c #9898A6",
"O.	c #B9B9C4",
"P.	c #B5B5BE",
"Q.	c #8F8E94",
"R.	c #97969C",
"S.	c #B0AEB5",
"T.	c #ADACB3",
"U.	c #AAA9AE",
"V.	c #A6A5AC",
"W.	c #A2A1A9",
"X.	c #A09FA8",
"Y.	c #A4A2A3",
"Z.	c #D0D0DC",
"`.	c #CCCCD8",
" +	c #C8C8D5",
".+	c #C3C3D2",
"++	c #90909F",
"@+	c #ABABBB",
"#+	c #B8B8C9",
"$+	c #A0A0B0",
"%+	c #8A8A99",
"&+	c #A0A0AE",
"*+	c #AAA9B7",
"=+	c #A6A6B3",
"-+	c #A2A2AF",
";+	c #9F9EAC",
">+	c #9F9EA9",
",+	c #BFBFCE",
"'+	c #B9B9CA",
")+	c #B6B6C8",
"!+	c #B2B2C5",
"~+	c #8C8C9D",
"{+	c #9393A6",
"]+	c #A5A5BB",
"^+	c #A1A1B7",
"/+	c #9D9DB4",
"(+	c #9B9BB0",
"_+	c #9A9AAE",
":+	c #AAAABE",
"<+	c #A1A1B8",
"[+	c #9C9CB4",
"}+	c #9999B2",
"|+	c #9898B1",
"1+	c #9E9EB5",
"                              . + @ # $ % &     ",
"                            * = - ; > , ' ) @   ",
"                              ! ~ { ] ^ / ( _ : ",
"                            < [ } | 1 2 3 4 5   ",
"                            6 7 8 9 0 a b c d   ",
"                              e f ~ g h ~ i j k ",
"                      l m n o p % q r s q t     ",
"                    u v w x y z A B C D t       ",
"              E F G H I J K L M N O P           ",
"          Q R S T U V W X Y Z `  ...+.@.#.      ",
"      $.R %.&.*.=.-.;.>.,.'.).!.~.{.Z ].^./.(.  ",
"  _.:.<.[.}.|.1.2.3.4.5.6.7.8.9.0.a.b.c.d.e.f.g.",
"h.i.j.k.l.m.n.o.p.q.r.s.t.u.v.w.x.y.z.A.B.C.D.E.",
"    F.G.H.I.J.K.L.M.N.p.O.P.Q.R.S.T.U.V.W.X.Y.  ",
"          Z.`. +.+++@+#+$+%+&+*+=+-+;+>+        ",
"              ,+'+)+!+~+{+]+^+/+(+_+            ",
"                    :+]+<+[+}+|+                ",
"                      1+}+|+                    ",
"                                                ",
"                                                ",
"                                                ",
"                                                ",
"                                                ",
"                                                "};
