/* XPM */
static char * newmodule_xpm[] = {
"24 24 284 2",
"  	c None",
". 	c #A9A66D",
"+ 	c #A09D6F",
"@ 	c #B9B469",
"# 	c #E9E066",
"$ 	c #FEF258",
"% 	c #FEF04B",
"& 	c #FEF25E",
"* 	c #FEF484",
"= 	c #FEF68E",
"- 	c #FEF261",
"; 	c #FFEF49",
"> 	c #8D8B73",
", 	c #969371",
"' 	c #A4A171",
") 	c #B4B073",
"! 	c #C2BD73",
"~ 	c #DBD372",
"{ 	c #F4ED8F",
"] 	c #FDF6A8",
"^ 	c #FEF8B9",
"/ 	c #FEF8B8",
"( 	c #FEF7A2",
"_ 	c #FEF371",
": 	c #89887F",
"< 	c #858477",
"[ 	c #888776",
"} 	c #949170",
"| 	c #9D996C",
"1 	c #A9A467",
"2 	c #BBB467",
"3 	c #D3CB6F",
"4 	c #ECE7AA",
"5 	c #F6F1CB",
"6 	c #FBF9E9",
"7 	c #FEFBE9",
"8 	c #FEF9C8",
"9 	c #FEF7A6",
"0 	c #FEF267",
"a 	c #FEF25D",
"b 	c #7C7C7C",
"c 	c #9D9C98",
"d 	c #C7C6BC",
"e 	c #B1AF9F",
"f 	c #8B8A76",
"g 	c #918F74",
"h 	c #999671",
"i 	c #A39F6F",
"j 	c #AFAA6C",
"k 	c #BFB969",
"l 	c #D6CF70",
"m 	c #EFE9A8",
"n 	c #F8F4DA",
"o 	c #FBFBFA",
"p 	c #FBFAF9",
"q 	c #FAF6D5",
"r 	c #FEF7A5",
"s 	c #FEF04F",
"t 	c #7E7E7A",
"u 	c #85847A",
"v 	c #A8A796",
"w 	c #C8C6B2",
"x 	c #C1BFA3",
"y 	c #A3A078",
"z 	c #AAA671",
"A 	c #BAB673",
"B 	c #CCC77C",
"C 	c #EDE694",
"D 	c #F3EDB0",
"E 	c #F5F1CF",
"F 	c #F8F6EC",
"G 	c #F8F6EA",
"H 	c #F4EFC8",
"I 	c #EDE79E",
"J 	c #E9DE59",
"K 	c #7E7D7B",
"L 	c #818079",
"M 	c #868577",
"N 	c #8B8A75",
"O 	c #A09E81",
"P 	c #C7C59D",
"Q 	c #D4D0A1",
"R 	c #D8D399",
"S 	c #D4CE87",
"T 	c #D1C971",
"U 	c #E2DC8A",
"V 	c #EDE8AB",
"W 	c #F2EDBD",
"X 	c #F1EDBC",
"Y 	c #DFD982",
"Z 	c #CBC46F",
"` 	c #C5BF72",
" .	c #878787",
"..	c #7F7F7F",
"+.	c #7D7D7B",
"@.	c #8A8976",
"#.	c #9C9B82",
"$.	c #C1BEA1",
"%.	c #C4C1A3",
"&.	c #C0BC8D",
"*.	c #CCC784",
"=.	c #C1BB6B",
"-.	c #CEC66A",
";.	c #D9D171",
">.	c #E5DF90",
",.	c #E0D97F",
"'.	c #D8D071",
").	c #CAC265",
"!.	c #B9B265",
"~.	c #A8A361",
"{.	c #919191",
"].	c #909090",
"^.	c #888888",
"/.	c #7C7C7B",
"(.	c #82817C",
"_.	c #A4A499",
":.	c #C3C2B6",
"<.	c #B0AFA9",
"[.	c #82807B",
"}.	c #878470",
"|.	c #969270",
"1.	c #A29E73",
"2.	c #CAC485",
"3.	c #CBC579",
"4.	c #C5BE65",
"5.	c #C7BF62",
"6.	c #C4BD5E",
"7.	c #C3BC67",
"8.	c #B2AC61",
"9.	c #A09A59",
"0.	c #87834D",
"a.	c #8B8B8B",
"b.	c #818181",
"c.	c #9B9B9B",
"d.	c #C0BFC1",
"e.	c #9C9BA4",
"f.	c #6C6B77",
"g.	c #6F6E76",
"h.	c #757374",
"i.	c #817F71",
"j.	c #84816F",
"k.	c #8A866D",
"l.	c #9E9A6F",
"m.	c #A7A171",
"n.	c #C6C07F",
"o.	c #CAC57C",
"p.	c #ADA75F",
"q.	c #9E9852",
"r.	c #979255",
"s.	c #827D48",
"t.	c #837F50",
"u.	c #BAB9C8",
"v.	c #686781",
"w.	c #66667A",
"x.	c #696878",
"y.	c #6D6B77",
"z.	c #706F76",
"A.	c #7B7872",
"B.	c #8A8870",
"C.	c #88846E",
"D.	c #8C886B",
"E.	c #8C8663",
"F.	c #A6A073",
"G.	c #938E58",
"H.	c #817C48",
"I.	c #827E4E",
"J.	c #7C784D",
"K.	c #6F6B49",
"L.	c #A8A7BB",
"M.	c #747292",
"N.	c #71708A",
"O.	c #6C6C81",
"P.	c #6A6A79",
"Q.	c #787673",
"R.	c #7B7970",
"S.	c #767369",
"T.	c #6B6656",
"U.	c #665F4A",
"V.	c #928D6C",
"W.	c #86825A",
"X.	c #726F49",
"Y.	c #706D49",
"Z.	c #77744F",
"`.	c #66644A",
" +	c #747291",
".+	c #767490",
"++	c #76748C",
"@+	c #717082",
"#+	c #696873",
"$+	c #625F64",
"%+	c #555151",
"&+	c #534E4B",
"*+	c #57514A",
"=+	c #59534A",
"-+	c #88826E",
";+	c #7C795C",
">+	c #686549",
",+	c #65634A",
"'+	c #68664C",
")+	c #65634C",
"!+	c #D1D1D1",
"~+	c #AEAEAE",
"{+	c #757391",
"]+	c #78758F",
"^+	c #6D6A7D",
"/+	c #48434C",
"(+	c #4A454B",
"_+	c #4C474B",
":+	c #4E494B",
"<+	c #4F4A4B",
"[+	c #7C7872",
"}+	c #73715E",
"|+	c #5E5D4A",
"1+	c #5D5B4A",
"2+	c #626050",
"3+	c #9E9D89",
"4+	c #949494",
"5+	c #B2B2B2",
"6+	c #CACACA",
"7+	c #B7B7B7",
"8+	c #989898",
"9+	c #6A667F",
"0+	c #423E4C",
"a+	c #45414C",
"b+	c #47424C",
"c+	c #787474",
"d+	c #6E6D5F",
"e+	c #616052",
"f+	c #8F8E81",
"g+	c #B0AFA4",
"h+	c #7B7A6F",
"i+	c #ADADAD",
"j+	c #C8C8C8",
"k+	c #C5C5C5",
"l+	c #666380",
"m+	c #3E394C",
"n+	c #403C4C",
"o+	c #413D4C",
"p+	c #433E4C",
"q+	c #44404C",
"r+	c #747075",
"s+	c #A9A89F",
"t+	c #B4B4AB",
"u+	c #74736B",
"v+	c #52514B",
"w+	c #50504B",
"x+	c #A0A0A0",
"y+	c #E1E1E4",
"z+	c #ADACBE",
"A+	c #7D7B99",
"B+	c #666381",
"C+	c #3B374D",
"D+	c #3B374C",
"E+	c #3C384C",
"F+	c #433F52",
"G+	c #8A8791",
"H+	c #C3C2C0",
"I+	c #7F7E7A",
"J+	c #4F4F4B",
"K+	c #4E4E4B",
"L+	c #4D4D4B",
"M+	c #4C4C4B",
"N+	c #BABABA",
"O+	c #A2A2A2",
"P+	c #CACACD",
"Q+	c #B1B0C0",
"R+	c #8A88A3",
"S+	c #444055",
"T+	c #7C7987",
"U+	c #A8A8AB",
"V+	c #737373",
"W+	c #797979",
"X+	c #626262",
"Y+	c #4C4C4C",
"Z+	c #9C9C9C",
"`+	c #BDBDBE",
" @	c #BEBECA",
".@	c #797790",
"+@	c #858290",
"@@	c #AEADB1",
"#@	c #6E6E6E",
"$@	c #AFAFAF",
"%@	c #808080",
"&@	c #707070",
"                      . + @ # $ % & * = - ;     ",
"                    > , ' ) ! ~ { ] ^ / ( _ &   ",
"              : < [ > } | 1 2 3 4 5 6 7 8 9 0 a ",
"          b c d e f g h i j k l m n o p q r s   ",
"    b b b b t u v w x y z A B C D E F G H I J   ",
"b b b b b b K L M N O P Q R S T U V W X V Y Z ` ",
" ...b b b b +.L M @.#.$.%.&.*.=.-.;.>.,.'.).!.~.",
"{.].^...b b /.(._.:.<.[.}.|.1.2.3.4.5.6.7.8.9.0.",
"{.{.{.{.a.b.c.d.e.f.g.h.i.j.k.l.m.n.o.p.q.r.s.t.",
"{.{.{.{.{.{.u.v.w.x.y.z.h.A.B.C.D.E.F.G.H.I.J.K.",
"{.{.{.{.{.{.L.M.N.O.P.y.z.Q.R.S.T.U.V.W.X.Y.Z.`.",
"{.{.{.{.{.{.L.M. +.+++@+#+$+%+&+*+=+-+;+>+,+'+)+",
"!+~+{.{.{.{.L.M.M.M.{+]+^+/+(+_+:+<+[+}+|+1+2+3+",
"4+5+6+7+8+{.L.M.M.M.M.{+9+0+a+b+/+(+c+d+e+f+g+h+",
"{.{.{.i+j+k+L.M.M.M.M.M.l+m+n+o+p+q+r+s+t+u+v+w+",
"{.{.{.{.{.x+y+z+A+M.M.M.B+C+D+E+F+G+H+I+J+K+L+M+",
"{.{.{.{.{.{.N+O+P+Q+R+M.B+C+S+T+U+V+W+X+Y+Y+Y+Y+",
"{.{.{.{.{.{.N+{.{.Z+`+ @.@+@@@#@Y+Y+W+X+Y+Y+Y+Y+",
"  {.{.{.{.{.N+{.{.{.{.{.$@#@Y+Y+Y+Y+W+X+Y+Y+Y+Y+",
"      {.{.{.N+{.{.{.{.{.%@Y+Y+Y+Y+Y+W+X+Y+Y+    ",
"          {.N+{.{.{.{.{.%@Y+Y+Y+Y+Y+W+&@        ",
"              {.{.{.{.{.%@Y+Y+Y+Y+Y+            ",
"                    {.{.%@Y+Y+Y+                ",
"                      {.%@Y+                    "};
