/* XPM */
static char * newpackage_xpm[] = {
"24 24 269 2",
"  	c None",
". 	c #98956D",
"+ 	c #8D8A6F",
"@ 	c #ABA669",
"# 	c #E5DB66",
"$ 	c #FEF258",
"% 	c #FEF04B",
"& 	c #FEF25E",
"* 	c #FEF484",
"= 	c #FEF68E",
"- 	c #FEF261",
"; 	c #FFEF49",
"> 	c #777573",
", 	c #827F71",
"' 	c #928F71",
") 	c #A5A173",
"! 	c #B6B173",
"~ 	c #D4CD72",
"{ 	c #F2EB8F",
"] 	c #FDF6A8",
"^ 	c #FEF8B9",
"/ 	c #FEF8B8",
"( 	c #FEF7A2",
"_ 	c #FEF371",
": 	c #71717F",
"< 	c #6D6C77",
"[ 	c #716F76",
"} 	c #767473",
"| 	c #7F7C70",
"1 	c #8A856C",
"2 	c #989367",
"3 	c #AEA767",
"4 	c #CAC26F",
"5 	c #E9E4AA",
"6 	c #F4EFCB",
"7 	c #FBF9E9",
"8 	c #FEFBE9",
"9 	c #FEF9C8",
"0 	c #FEF7A6",
"a 	c #FEF267",
"b 	c #FEF25D",
"c 	c #62627C",
"d 	c #898998",
"e 	c #BBBBBC",
"f 	c #A1A09F",
"g 	c #747376",
"h 	c #7B7974",
"i 	c #858271",
"j 	c #918D6F",
"k 	c #9F9A6C",
"l 	c #B2AC69",
"m 	c #CEC770",
"n 	c #ECE6A8",
"o 	c #F7F3DA",
"p 	c #FAFAFA",
"q 	c #FAF9F9",
"r 	c #FAF6D5",
"s 	c #FEF7A5",
"t 	c #FEF04F",
"u 	c #65647A",
"v 	c #6D6C7A",
"w 	c #979696",
"x 	c #BCBBB2",
"y 	c #B5B3A3",
"z 	c #918E78",
"A 	c #999671",
"B 	c #ADA873",
"C 	c #C2BD7C",
"D 	c #E9E394",
"E 	c #F2ECB0",
"F 	c #F3F0CF",
"G 	c #F7F5EC",
"H 	c #F7F5EA",
"I 	c #F2EDC8",
"J 	c #EAE49E",
"K 	c #E5DA59",
"L 	c #64647B",
"M 	c #686879",
"N 	c #6E6D77",
"O 	c #747375",
"P 	c #8E8C81",
"Q 	c #BDBA9D",
"R 	c #CBC8A1",
"S 	c #D0CB99",
"T 	c #CCC687",
"U 	c #C8C071",
"V 	c #DCD68A",
"W 	c #EAE5AB",
"X 	c #EFEBBD",
"Y 	c #EFEABC",
"Z 	c #D9D282",
"` 	c #C1BA6F",
" .	c #B9B472",
"..	c #6C6A88",
"+.	c #64647F",
"@.	c #63637B",
"#.	c #686779",
"$.	c #737276",
"%.	c #8A8882",
"&.	c #B7B5A1",
"*.	c #C4C1A3",
"=.	c #BDB98D",
"-.	c #C3BE84",
";.	c #B5AF6B",
">.	c #C5BD6A",
",.	c #D1CA71",
"'.	c #E0DA90",
").	c #DBD37F",
"!.	c #D0C871",
"~.	c #BFB765",
"{.	c #ABA465",
"].	c #9A9361",
"^.	c #747292",
"/.	c #737191",
"(.	c #6D6C89",
"_.	c #62627B",
":.	c #68687C",
"<.	c #939299",
"[.	c #BAB9B6",
"}.	c #AFAEA9",
"|.	c #82807B",
"1.	c #878470",
"2.	c #969270",
"3.	c #A29E73",
"4.	c #C6C185",
"5.	c #C2BC79",
"6.	c #BAB365",
"7.	c #BCB462",
"8.	c #B9B15E",
"9.	c #B7B067",
"0.	c #A59E61",
"a.	c #948D5A",
"b.	c #7B744D",
"c.	c #6F6E8C",
"d.	c #666681",
"e.	c #87879B",
"f.	c #B9B9C1",
"g.	c #9C9BA4",
"h.	c #6C6B77",
"i.	c #6F6E76",
"j.	c #757374",
"k.	c #817F71",
"l.	c #84816F",
"m.	c #8A866D",
"n.	c #9E9A6F",
"o.	c #A7A171",
"p.	c #C3BE7F",
"q.	c #C0BA7C",
"r.	c #9F985F",
"s.	c #918A52",
"t.	c #8D8655",
"u.	c #766E49",
"v.	c #777151",
"w.	c #BAB9C8",
"x.	c #686781",
"y.	c #66667A",
"z.	c #696878",
"A.	c #6D6B77",
"B.	c #706F76",
"C.	c #7B7872",
"D.	c #8A8870",
"E.	c #88846E",
"F.	c #8C886B",
"G.	c #8C8663",
"H.	c #A6A073",
"I.	c #898258",
"J.	c #756D49",
"K.	c #76704F",
"L.	c #6F694E",
"M.	c #615B4A",
"N.	c #A8A7BB",
"O.	c #71708A",
"P.	c #6C6C81",
"Q.	c #6A6A79",
"R.	c #787673",
"S.	c #7B7970",
"T.	c #767369",
"U.	c #6B6656",
"V.	c #665F4A",
"W.	c #928D6C",
"X.	c #7B755B",
"Y.	c #655E49",
"Z.	c #625C4A",
"`.	c #6A6450",
" +	c #58524B",
".+	c #747291",
"++	c #767490",
"@+	c #76748C",
"#+	c #717082",
"$+	c #696873",
"%+	c #625F64",
"&+	c #555151",
"*+	c #534E4B",
"=+	c #57514A",
"-+	c #59534A",
";+	c #88826E",
">+	c #706A5D",
",+	c #56504B",
"'+	c #5A554D",
")+	c #56514C",
"!+	c #C4C4D1",
"~+	c #9997AF",
"{+	c #757391",
"]+	c #78758F",
"^+	c #6D6A7D",
"/+	c #48434C",
"(+	c #4A454B",
"_+	c #4C474B",
":+	c #4E494B",
"<+	c #4F4A4B",
"[+	c #7C7872",
"}+	c #66615F",
"|+	c #524D51",
"1+	c #95928A",
"2+	c #787695",
"3+	c #9D9CB2",
"4+	c #BCBBCA",
"5+	c #A5A3B8",
"6+	c #7D7B99",
"7+	c #6A667F",
"8+	c #423E4C",
"9+	c #45414C",
"0+	c #47424C",
"a+	c #787474",
"b+	c #625D60",
"c+	c #524D53",
"d+	c #848181",
"e+	c #A8A5A5",
"f+	c #6F6B70",
"g+	c #9795AD",
"h+	c #B5B4C5",
"i+	c #666380",
"j+	c #3E394C",
"k+	c #403C4C",
"l+	c #413D4C",
"m+	c #433E4C",
"n+	c #44404C",
"o+	c #747075",
"p+	c #A19FA0",
"q+	c #ADABAB",
"r+	c #66636B",
"s+	c #8886A1",
"t+	c #DCDCE4",
"u+	c #ACABBE",
"v+	c #666381",
"w+	c #3B374D",
"x+	c #3B374C",
"y+	c #3C384C",
"z+	c #433F52",
"A+	c #8A8791",
"B+	c #C0BEC1",
"C+	c #726F7A",
"D+	c #3E3A4C",
"E+	c #8A88A3",
"F+	c #C0BFCE",
"G+	c #AFAEC0",
"H+	c #444055",
"I+	c #7B7987",
"J+	c #A3A1AC",
"K+	c #666374",
"L+	c #6C6979",
"M+	c #545063",
"N+	c #82809D",
"O+	c #797790",
"P+	c #858290",
"Q+	c #A9A7B1",
"R+	c #605D6E",
"S+	c #9F9EB0",
"T+	c #625F71",
"                      . + @ # $ % & * = - ;     ",
"                    > , ' ) ! ~ { ] ^ / ( _ &   ",
"              : < [ } | 1 2 3 4 5 6 7 8 9 0 a b ",
"          c d e f g h i j k l m n o p q r s t   ",
"    c c c c u v w x y z A B C D E F G H I J K   ",
"c c c c c c L M N O P Q R S T U V W X Y W Z `  .",
"..+.c c c c @.#.N $.%.&.*.=.-.;.>.,.'.).!.~.{.].",
"^./.(.+.c c _.:.<.[.}.|.1.2.3.4.5.6.7.8.9.0.a.b.",
"^.^.^.^.c.d.e.f.g.h.i.j.k.l.m.n.o.p.q.r.s.t.u.v.",
"^.^.^.^.^.^.w.x.y.z.A.B.j.C.D.E.F.G.H.I.J.K.L.M.",
"^.^.^.^.^.^.N.^.O.P.Q.A.B.R.S.T.U.V.W.X.Y.Z.`. +",
"^.^.^.^.^.^.N.^..+++@+#+$+%+&+*+=+-+;+>+-+,+'+)+",
"!+~+^.^.^.^.N.^.^.^.{+]+^+/+(+_+:+<+[+}+<+:+|+1+",
"2+3+4+5+6+^.N.^.^.^.^.{+7+8+9+0+/+(+a+b+c+d+e+f+",
"^.^.^.g+w.h+N.^.^.^.^.^.i+j+k+l+m+n+o+p+q+r+l+k+",
"^.^.^.^.^.s+t+u+6+^.^.^.v+w+x+y+z+A+B+C+D+j+y+x+",
"^.^.^.^.^.^.N.E+F+G+E+^.v+w+H+I+J+K+L+M+w+w+w+w+",
"^.^.^.^.^.^.N.^.^.N+u+4+O+P+Q+R+w+w+L+M+w+w+w+w+",
"  ^.^.^.^.^.N.^.^.^.^.^.S+R+w+w+w+w+L+M+w+w+w+w+",
"      ^.^.^.N.^.^.^.^.^.v+w+w+w+w+w+L+M+w+w+    ",
"          ^.N.^.^.^.^.^.v+w+w+w+w+w+L+T+        ",
"              ^.^.^.^.^.v+w+w+w+w+w+            ",
"                    ^.^.v+w+w+w+                ",
"                      ^.v+w+                    "};
