/* XPM */
static char *topic[] = {
/* columns rows colors chars-per-pixel */
"24 24 13 1",
"  c black",
". c gray19",
"X c #585858",
"o c #800000",
"O c #C00000",
"+ c red",
"@ c #A0A0A0",
"# c #9DB9C8",
"$ c #FFDCA8",
"% c #C3C3C3",
"& c gainsboro",
"* c #FFFFC0",
"= c gray100",
/* pixels */
"####            ########",
"####            ########",
"####  &&&&&&%%.%  ######",
"####@@&=======X=&& #####",
"####@@&=======X=&& #####",
"####++OoooOo==X&==% ####",
"###+oo%&==+OooXXXX. ####",
"###+oo%&==+OooXXXX. ####",
"###+  &====+oo%&%%@ ####",
"###Oooo====+oo&*==& ####",
"###Oooo====+oo&*==& ####",
"####OO&===+Ooo%==== ####",
"####@@%=++Oo&&=*==* ####",
"####@@%=++Oo&&=*==* ####",
"####  &+OOo%====$$= ####",
"####  &Ooo&=**=*==* ####",
"####  &Ooo&=**=*==* ####",
"####  &&&&====$=$$= ####",
"####  &+OO*=**=*==* ####",
"####  &+OO*=**=*==* ####",
"####  &Ooo&$==$=$$* ####",
"####  &*&&%=**=**** ####",
"####  &*&&%=**=**** ####",
"####                ####"
};
