/* XPM */
static char * open_xpm[] = {
"24 24 266 2",
"  	c None",
". 	c #0C7706",
"+ 	c #0D7607",
"@ 	c #0C7606",
"# 	c #0B7406",
"$ 	c #0A7005",
"% 	c #097005",
"& 	c #0C7406",
"* 	c #16830C",
"= 	c #19910D",
"- 	c #18970C",
"; 	c #15900A",
"> 	c #0E7D08",
", 	c #D4A319",
"' 	c #D5A622",
") 	c #D6A726",
"! 	c #D6A92A",
"~ 	c #D7AA2B",
"{ 	c #D5A61F",
"] 	c #128409",
"^ 	c #199E0E",
"/ 	c #1CA60F",
"( 	c #138A09",
"_ 	c #D5A621",
": 	c #ECD582",
"< 	c #F3E594",
"[ 	c #F6E897",
"} 	c #F9ED9E",
"| 	c #FBF4A7",
"1 	c #E8CB5A",
"2 	c #D2A114",
"3 	c #0C7506",
"4 	c #199D0E",
"5 	c #1DA80F",
"6 	c #128709",
"7 	c #D3A316",
"8 	c #E8CD7A",
"9 	c #FFFFB5",
"0 	c #FFFE97",
"a 	c #FFFC95",
"b 	c #FFFA93",
"c 	c #FFFB93",
"d 	c #FBEE85",
"e 	c #DAB031",
"f 	c #D8AD30",
"g 	c #DBB238",
"h 	c #DCB43E",
"i 	c #DEB743",
"j 	c #DFBA48",
"k 	c #E1BC4E",
"l 	c #E3C056",
"m 	c #13830A",
"n 	c #20AA11",
"o 	c #199D0C",
"p 	c #D7AA2A",
"q 	c #FAF4B3",
"r 	c #FFFD96",
"s 	c #FFF993",
"t 	c #FFF893",
"u 	c #FFF791",
"v 	c #FFF792",
"w 	c #FDF39F",
"x 	c #FDF2A1",
"y 	c #FDF29F",
"z 	c #FDF19D",
"A 	c #FDF19B",
"B 	c #FEF19A",
"C 	c #FFF398",
"D 	c #FFF69D",
"E 	c #0F7708",
"F 	c #2BA919",
"G 	c #22AA12",
"H 	c #D8AB2B",
"I 	c #FDF8A5",
"J 	c #FFFD94",
"K 	c #FFFA94",
"L 	c #FFF691",
"M 	c #FFF68F",
"N 	c #FFF68D",
"O 	c #FFF48D",
"P 	c #FFF38D",
"Q 	c #FFF591",
"R 	c #FFF189",
"S 	c #FCEC7F",
"T 	c #FCEC80",
"U 	c #0C7306",
"V 	c #39AD23",
"W 	c #38B821",
"X 	c #D7AB29",
"Y 	c #FCF49E",
"Z 	c #FFF590",
"` 	c #FFF58E",
" .	c #FFF692",
"..	c #FEF28C",
"+.	c #EED55D",
"@.	c #0A7205",
"#.	c #107708",
"$.	c #4DBB30",
"%.	c #4BC22E",
"&.	c #0A7105",
"*.	c #D7AA28",
"=.	c #FBF39C",
"-.	c #FFF995",
";.	c #F9EA7C",
">.	c #E1BD41",
",.	c #E5CA7E",
"'.	c #35AE21",
").	c #51AF34",
"!.	c #5CBB3B",
"~.	c #69CE44",
"{.	c #5AC739",
"].	c #49BC2D",
"^.	c #097004",
"/.	c #D7AA29",
"(.	c #FBF39D",
"_.	c #FFFD95",
":.	c #FFFA95",
"<.	c #FFFD99",
"[.	c #FFFC97",
"}.	c #FEF38A",
"|.	c #FCF185",
"1.	c #F0D961",
"2.	c #DEB83F",
"3.	c #F0DFAF",
"4.	c #FFFBC6",
"5.	c #FFF392",
"6.	c #4BAA2F",
"7.	c #93EB5F",
"8.	c #83DE55",
"9.	c #6FD348",
"0.	c #38A822",
"a.	c #0B7306",
"b.	c #FBF29D",
"c.	c #FFFE96",
"d.	c #FFFB95",
"e.	c #EFDA64",
"f.	c #E8CB56",
"g.	c #E6C757",
"h.	c #E5C65F",
"i.	c #E4C566",
"j.	c #E4C672",
"k.	c #F4E8BC",
"l.	c #FFFAB1",
"m.	c #FEF186",
"n.	c #FEF089",
"o.	c #FEF08A",
"p.	c #026B00",
"q.	c #50AF32",
"r.	c #91E85E",
"s.	c #8BE55A",
"t.	c #5ABE3A",
"u.	c #0E7508",
"v.	c #D7A927",
"w.	c #FAF097",
"x.	c #FFFF9B",
"y.	c #ECD45A",
"z.	c #E0BD5F",
"A.	c #F3E7BA",
"B.	c #F9F1C1",
"C.	c #FCF5C3",
"D.	c #FDF6C0",
"E.	c #FFFBBE",
"F.	c #FFF89F",
"G.	c #FEF188",
"H.	c #FEF18C",
"I.	c #FEF08B",
"J.	c #0B7205",
"K.	c #62BF3F",
"L.	c #79D44F",
"M.	c #1C8111",
"N.	c #D4A51C",
"O.	c #D7A926",
"P.	c #FAF098",
"Q.	c #FDF88C",
"R.	c #DFBB4B",
"S.	c #FBF4CF",
"T.	c #FFFDA3",
"U.	c #FFF78F",
"V.	c #FFF58B",
"W.	c #FFF589",
"X.	c #FFF38C",
"Y.	c #FEF28D",
"Z.	c #FBE178",
"`.	c #147B0C",
" +	c #1F8413",
".+	c #E6C64C",
"++	c #FCF39C",
"@+	c #F1DF67",
"#+	c #E8CF88",
"$+	c #FFFFBE",
"%+	c #FFF88C",
"&+	c #FFF38E",
"*+	c #FADE74",
"=+	c #FCEE8A",
"-+	c #D9AD28",
";+	c #FBF197",
">+	c #E6CB52",
",+	c #F4E6B8",
"'+	c #FFFD9F",
")+	c #FFF891",
"!+	c #FCE178",
"~+	c #EFD666",
"{+	c #D3A218",
"]+	c #D7AA27",
"^+	c #F3E27E",
"/+	c #E4C460",
"(+	c #FEFACA",
"_+	c #FFFA90",
":+	c #FFF892",
"<+	c #FBE278",
"[+	c #FADD73",
"}+	c #E0BB3C",
"|+	c #D8AC2A",
"1+	c #E7C85A",
"2+	c #EBD593",
"3+	c #FFFFB7",
"4+	c #FFF98F",
"5+	c #FEF18B",
"6+	c #FFF28D",
"7+	c #FEE780",
"8+	c #F0CC59",
"9+	c #D6A71F",
"0+	c #D6A820",
"a+	c #DCB440",
"b+	c #F9F1C5",
"c+	c #FFFD9A",
"d+	c #FFF992",
"e+	c #FFF490",
"f+	c #FFF693",
"g+	c #FFF390",
"h+	c #FDEE8A",
"i+	c #FAE781",
"j+	c #F1D364",
"k+	c #DDB02E",
"l+	c #D3A212",
"m+	c #E1BF63",
"n+	c #FFFECB",
"o+	c #FFFB8F",
"p+	c #FFFA98",
"q+	c #FFF997",
"r+	c #FCED89",
"s+	c #F4DF75",
"t+	c #EDD05F",
"u+	c #E6C24A",
"v+	c #DDB434",
"w+	c #D7A923",
"x+	c #D5A51C",
"y+	c #D4A51B",
"z+	c #D3A317",
"A+	c #F0DFA9",
"B+	c #FFFFB8",
"C+	c #FFFE99",
"D+	c #FFF996",
"E+	c #FDF291",
"F+	c #F8E781",
"G+	c #F0D76B",
"H+	c #E9C955",
"I+	c #E1BA3F",
"J+	c #D9AD29",
"K+	c #D5A61E",
"L+	c #D6A825",
"M+	c #E8CA58",
"N+	c #E1BC43",
"O+	c #DAAF2D",
"P+	c #D6A720",
"Q+	c #D4A31A",
"                                                ",
"                        . + @ # $               ",
"                      % & * = - ; > .           ",
"      , ' ) ! ~ {             ] ^ / ( $         ",
"    _ : < [ } | 1 2             3 4 5 6 .       ",
"  7 8 9 0 a b c d e f g h i j k l m n o .       ",
"  p q r b s t u v w x y z A B C D E F G .       ",
"  H I J K s t v L M N O P Q R S T U V W .       ",
"  X Y r K s t v L Z `  ...+.@.@.@.#.$.%.. . @.&.",
"  *.=.r K s t t v L -.;.>.,.@.'.).!.~.{.].'.'.^.",
"  /.(._.:.<.[.u }.|.1.2.3.4.5.@.6.7.8.9.'.0.a.  ",
"  /.b.c.d.e.f.g.h.i.j.k.l.m.n.o.p.q.r.s.t.u.    ",
"  v.w.x.y.z.A.B.C.D.E.F.G.H.I.o.I.J.K.L.M.N.    ",
"  O.P.Q.R.S.T.s U.V.W.X.Y.H.I.o.I.Z.`. +.+      ",
"  O.++@+#+$+%+u L Z ` &+Y.H.I.o.I.Z.*+=+-+      ",
"  O.;+>+,+'+)+v L Z ` &+Y.H.I.H.I.Z.!+~+{+      ",
"  ]+^+/+(+_+:+v L Z ` &+Y.H.I.o.I.<+[+}+        ",
"  |+1+2+3+4+t v L Z ` &+Y.H.I.5+6+7+8+9+        ",
"  0+a+b+c+d+t v L Z M e+Q f+g+h+i+j+k+          ",
"  l+m+n+o+K K :.p+q+e+r+s+t+u+v+w+x+y+          ",
"  z+A+B+C+D+E+F+G+H+I+J+K+{+                    ",
"  L+L+L+M+N+O+P+Q+                              ",
"                                                ",
"                                                "};
