/* XPM */
static char * save_xpm[] = {
"24 24 228 2",
"  	c None",
". 	c #6C73AD",
"+ 	c #4045A1",
"@ 	c #8789B6",
"# 	c #CBCBC6",
"$ 	c #C3C3C4",
"% 	c #C3C3C3",
"& 	c #C8C9CF",
"* 	c #8484B8",
"= 	c #454496",
"- 	c #4D4C9A",
"; 	c #7682B4",
"> 	c #6B6FBF",
", 	c #4145AA",
"' 	c #9B9ECB",
") 	c #F2F3F3",
"! 	c #E8E9EF",
"~ 	c #EBECF0",
"{ 	c #DFE0E8",
"] 	c #8A8BC8",
"^ 	c #5353B8",
"/ 	c #5D5CB8",
"( 	c #4E4D9A",
"_ 	c #6B6EC4",
": 	c #4145AC",
"< 	c #A2A5D2",
"[ 	c #FFFFFF",
"} 	c #F4F5FC",
"| 	c #F5F6FD",
"1 	c #F7F8FF",
"2 	c #E6E7F1",
"3 	c #8C8DCC",
"4 	c #5959C3",
"5 	c #6261C1",
"6 	c #A1A4D1",
"7 	c #FEFFFF",
"8 	c #E5E5EB",
"9 	c #CFCFD2",
"0 	c #D0D1D3",
"a 	c #CECED0",
"b 	c #E3E4E9",
"c 	c #E7E8F2",
"d 	c #5757C1",
"e 	c #6160C0",
"f 	c #EBECF2",
"g 	c #DFE0E5",
"h 	c #E0E1E5",
"i 	c #DFDFE4",
"j 	c #ECEDF2",
"k 	c #E6E7EC",
"l 	c #D1D1D4",
"m 	c #D2D2D5",
"n 	c #D0D0D2",
"o 	c #E5E5E9",
"p 	c #E7E8F1",
"q 	c #EEEEF5",
"r 	c #E7E8ED",
"s 	c #F0F0F5",
"t 	c #CACACC",
"u 	c #CCCCCD",
"v 	c #C8C9CA",
"w 	c #E2E2E6",
"x 	c #FDFFFF",
"y 	c #F1F2F8",
"z 	c #F0F1F8",
"A 	c #F4F5FB",
"B 	c #E5E6EF",
"C 	c #A3A6D2",
"D 	c #F6F7FD",
"E 	c #E6E7EF",
"F 	c #9A9ECE",
"G 	c #F3F5FA",
"H 	c #ECEDF6",
"I 	c #EEEFF7",
"J 	c #F2F3FA",
"K 	c #E4E5EE",
"L 	c #8D8ECD",
"M 	c #6C6FC4",
"N 	c #4A4EB0",
"O 	c #4449A5",
"P 	c #686CB5",
"Q 	c #8C8FC4",
"R 	c #A9ABD0",
"S 	c #BBBCD7",
"T 	c #BEBFD8",
"U 	c #BDBED8",
"V 	c #C2C3D8",
"W 	c #9090D1",
"X 	c #6161CC",
"Y 	c #7681B4",
"Z 	c #6B6EC3",
"` 	c #6060C6",
" .	c #5C5DC1",
"..	c #6163C4",
"+.	c #6B6CC8",
"@.	c #7272CB",
"#.	c #7677CD",
"$.	c #7879CD",
"%.	c #6F6FCD",
"&.	c #6666CD",
"*.	c #6565CC",
"=.	c #6363CC",
"-.	c #6161CB",
";.	c #6262CB",
">.	c #6261CC",
",.	c #5F5FCA",
"'.	c #5F5FC9",
").	c #6767CE",
"!.	c #6666CB",
"~.	c #5C5CBD",
"{.	c #7271B9",
"].	c #A5A7D3",
"^.	c #A0A0C9",
"/.	c #9999BF",
"(.	c #9494B8",
"_.	c #8D8DB1",
":.	c #9E9FC3",
"<.	c #B1B2D8",
"[.	c #C0C2E6",
"}.	c #7677C5",
"|.	c #3F3FA7",
"1.	c #4545AA",
"2.	c #4949AE",
"3.	c #6261C2",
"4.	c #5656B5",
"5.	c #7B7CAE",
"6.	c #A8AAC5",
"7.	c #6565A6",
"8.	c #6060A1",
"9.	c #64649D",
"0.	c #9F9F9E",
"a.	c #B8B9B4",
"b.	c #D4D6D3",
"c.	c #ECEFEC",
"d.	c #8182C3",
"e.	c #262690",
"f.	c #303095",
"g.	c #37379C",
"h.	c #5B5BC1",
"i.	c #6262C2",
"j.	c #5757B7",
"k.	c #797AAB",
"l.	c #8B8CB5",
"m.	c #2B2B97",
"n.	c #323297",
"o.	c #A6A6AD",
"p.	c #CECFCF",
"q.	c #E0E3E6",
"r.	c #F0F3F6",
"s.	c #8082C4",
"t.	c #292993",
"u.	c #333398",
"v.	c #39399E",
"w.	c #5C5CC2",
"x.	c #5858B8",
"y.	c #7676A5",
"z.	c #8889AD",
"A.	c #323298",
"B.	c #2F2F97",
"C.	c #4848A0",
"D.	c #C1C2C9",
"E.	c #E1E3E5",
"F.	c #EDF0F3",
"G.	c #F6F9FD",
"H.	c #7E7FC2",
"I.	c #7474A2",
"J.	c #8484A7",
"K.	c #3F3F9F",
"L.	c #7375B5",
"M.	c #D7D8DE",
"N.	c #EDEFF2",
"O.	c #F5F7FB",
"P.	c #F8FBFE",
"Q.	c #F7FAFA",
"R.	c #7C7CBE",
"S.	c #2A2994",
"T.	c #71719E",
"U.	c #7E7DA1",
"V.	c #3C3D9E",
"W.	c #6E70B4",
"X.	c #9DA0C9",
"Y.	c #E5E8EC",
"Z.	c #F7FAFE",
"`.	c #F2F5F9",
" +	c #EFF0F0",
".+	c #7879BB",
"++	c #2A2A94",
"@+	c #6565CD",
"#+	c #5958BA",
"$+	c #6C6C9B",
"%+	c #8D8DA1",
"&+	c #8081B5",
"*+	c #ACAFCF",
"=+	c #CACCDF",
"-+	c #F1F5F9",
";+	c #F9FCFF",
">+	c #EBEDEF",
",+	c #E8E9E8",
"'+	c #7776B9",
")+	c #292A94",
"!+	c #6464C9",
"~+	c #6565CB",
"{+	c #6A699A",
"]+	c #B1B1B0",
"^+	c #CBCDCD",
"/+	c #EAEBEE",
"(+	c #E0E2E3",
"_+	c #DFDFDE",
":+	c #7676B6",
"<+	c #2C2C95",
"[+	c #353598",
"}+	c #3A3A9E",
"|+	c #6C74AE",
"1+	c #52529F",
"2+	c #4F4E9C",
"3+	c #484799",
"4+	c #7473A3",
"5+	c #B8B8B7",
"6+	c #B6B6B8",
"7+	c #B7B7B9",
"8+	c #B7B8BA",
"9+	c #B7B7BA",
"0+	c #B6B6B7",
"a+	c #B8B8B8",
"b+	c #7171A4",
"c+	c #464598",
"d+	c #4B4A99",
"e+	c #4C4B99",
"    . + @ # $ $ $ $ $ $ $ $ $ $ $ $ % & * = -   ",
"  ; > , ' ) ! ! ! ! ! ! ! ! ! ! ! ! ~ { ] ^ / ( ",
"  ; _ : < [ } | | | | | | | | | | | 1 2 3 4 5 ( ",
"  ; _ : 6 7 8 9 0 0 0 0 0 0 0 0 0 a b c 3 d e ( ",
"  ; _ : 6 7 f g h h h h h h h h h i j 2 3 d e ( ",
"  ; _ : 6 7 f g h h h h h h h h h i j 2 3 d e ( ",
"  ; _ : 6 7 k l m m m m m m m m m n o p 3 d e ( ",
"  ; _ : 6 7 q r r r r r r r r r r k s 2 3 d e ( ",
"  ; _ : 6 7 b t u u u u u u u u u v w c 3 d e ( ",
"  ; _ : 6 x y z y y y y y y y y y z A B 3 d e ( ",
"  ; _ : C [ A A A A A A A A A A A A D E 3 d e ( ",
"  ; _ : F G H I z z z z z z z z z z J K L 4 e ( ",
"  ; M N O P Q R S T U U U U U U U U U V W X e - ",
"  Y Z `  ...+.@.#.#.#.#.#.#.#.#.#.#.#.$.%.&.e - ",
"  Y Z &.&.&.*.=.-.;.;.>.>.-.,.,.'.;.*.=.&.).e - ",
"  Y Z *.!.).~.{.].^./.(._._.:.<.[.}.|.1.2.` 3.- ",
"  Y Z *.!.).4.5.6.7.8.9.0.a.b.c.[ d.e.f.g.h.i.- ",
"  Y Z *.!.).j.k.l.m.m.n.o.p.q.r.x s.t.u.v.w.i.- ",
"  Y Z *.!.).x.y.z.A.B.C.D.E.F.G.x H.t.u.v.w.i.- ",
"  Y Z *.!.).x.I.J.B.K.L.M.N.O.P.Q.R.S.u.v.w.i.- ",
"  Y Z *.!.).x.T.U.V.W.X.Y.O.Z.`. +.+++u.v.w.i.- ",
"  Y Z @+&.).#+$+%+&+*+=+-+;+O.>+,+'+)+u.v.w.i.- ",
"  Y Z !+!+~+j.{+]+^+E.N.`.-+/+(+_+:+<+[+}+h.e - ",
"    |+1+( 2+3+4+5+6+7+8+9+7+6+0+a+b+c+d+e+( (   "};
