/* XPM */
static char *magick[] = {
/* columns rows colors chars-per-pixel */
"16 16 6 1",
"  c black",
". c gray44",
"X c navy",
"o c fractal",
"O c gray100",
"+ c None",
/* pixels */
"++++++++++++++++",
"++++++++++++++++",
"                ",
" XXXXXXXXXXXXXX ",
" XXXXXXXXXXXXXX ",
" oooooooooooooo ",
" OOoOOOoOOOoOOO ",
" OOoOOOoOOOoOOO ",
" oooooooooooooo ",
" OOoOOOoOOOoOOO ",
" OOoOOOoOOOoOOO ",
" oooooooooooooo ",
" OOoOOOoOOOoOOO ",
" OOoOOOoOOOoOOO ",
"                ",
"++++++++++++++++"
};
