/* XPM */
static char *fp32x32[] = {
/* width height num_colors chars_per_pixel */
"    32    32        6            1",
/* colors */
". c #0000ff",
"# c #00ffff",
"a c #c0c0c0",
"b c #ff0000",
"c c #ff00ff",
"d c #ffffff",
/* pixels */
"cc##############################",
"cc##############################",
"cc##############################",
"cc##############################",
"cc##############################",
"cc##############################",
"cc##############################",
"ccbbbbbbbbbbdddddddddddddddddddd",
"ccbbbbbbbbbdd....ddddddddddddddd",
"ccbbbbbbbbddd.dddddddddddddddddd",
"ccbbbbbbbdddd.dddd...dd..ddd..dd",
"ccbbbbbbddddd....d.ddd.dd.d.dd.d",
"ccbbbbbdddddd.dddd.ddd....d....d",
"ccbbbbddddddd.dddd.ddd.dddd.dddd",
"ccbbbdddddddd.dddd.dddd...dd...d",
"ccbbdddddddddddddddddddddddddddd",
"ccbddddddddddddddddddddddddddddd",
"ccddd...dddddddddddddddddddddd.d",
"ccddd.dd.ddddddddddddddddddddd.d",
"ccddd.dd.d...ddd...dd..dd...dd.d",
"ccddd...ddddd.d.dddd.dd.dddd.d.d",
"ccddd.ddddd...dd..dd.ddddd...d.d",
"ccddd.dddd.dd.dddd.d.dd.d.dd.d.d",
"ccddd.ddddd...d...ddd..ddd...d.d",
"ccdddddddddddddddddddddddddddddd",
"ccaaaaaaaaaaaaaaaaaaaaaaaaaaaaaa",
"ccaaaaaaaaaaaaaaaaaaaaaaaaaaaaaa",
"ccaaaaaaaaaaaaaaaaaaaaaaaaaaaaaa",
"ccaaaaaaaaaaaaaaaaaaaaaaaaaaaaaa",
"ccaaaaaaaaaaaaaaaaaaaaaaaaaaaaaa",
"ccaaaaaaaaaaaaaaaaaaaaaaaaaaaaaa",
"ccaaaaaaaaaaaaaaaaaaaaaaaaaaaaaa"
};
