/* XPM */
static char *magick[] = {
/* columns rows colors chars-per-pixel */
"16 16 8 1",
"  c black",
". c #830000",
"X c red",
"o c #838100",
"O c #ff8100",
"+ c #ffd200",
"@ c yellow",
"# c white",
/* pixels */
"############## @",
"############# @@",
"### ######## @@@",
"########### @@@O",
"#### ##### @ @+o",
"######### @ @ o ",
"##  # ## X @ o #",
"#  # ## XXX o ##",
"#  ### XXXX. ###",
"#### # XXX. ####",
"##  # # X. #####",
"#  ##  #  ######",
"  ###  #########",
"  ##   ## ######",
"        ### ####",
"#    #   #######"
};
