/* XPM */
static char *magick[] = {
/* columns rows colors chars-per-pixel */
"16 16 7 1",
"  c black",
". c #7b7d7b",
"X c #8b7d8b",
"o c #8b858b",
"O c #bdbebd",
"+ c #cdc6cd",
"@ c white",
/* pixels */
"@@@@@     @@@@@@",
"@@@@@ ... @@@@@@",
"@@           @@@",
"@@ @O+OX...X @@@",
"@@           @@@",
"@@@ . . . . @@@@",
"@@@ @ + o o @@@@",
"@@  @ O O .  @@@",
"@ @ @ + o o @ @@",
"@@@ @ O O . @@@@",
"@@@ @ + o o @@@@",
"@@@ @ O O . @@@@",
"@@@ @ + o o @@@@",
"@@@ @ O O . @@@@",
"@@@ @.o.o.o @@@@",
"@@@         @@@@"
};
