/* XPM */
static char *magick[] = {
/* columns rows colors chars-per-pixel */
"16 16 11 1",
"  c black",
". c #000083",
"X c #080083",
"o c #0000c5",
"O c #0800c5",
"+ c blue",
"@ c #0800ff",
"# c #c50000",
"$ c red",
"% c #cdc2ff",
"& c white",
/* pixels */
"&&&&&&&&&&&&&&&&",
"&&&&&@    &&&&&&",
"&&&. #$$$# .&&&&",
"&&.$#$#$#$#$.&&&",
"&& #@+$#$+@# .&&",
"&@#$O&O$O&O$# &&",
"& $$$o&+&o$$$ @&",
"& #$#$O&%$#$# .&",
"& $#$+&%&+$#$ @&",
"& #$O&O$O&O$# .&",
"&& $@o$$$o&$ .@&",
"&&.$#$#$#$#$ X&&",
"&&&. $$#$$  @+&&",
"&&&&.     .XO&&&",
"&&&&&&@.@.@&&&&&",
"&&&&&&&&&&&&&&&&"
};
