/* XPM */
static char *magick[] = {
/* columns rows colors chars-per-pixel */
"16 16 9 1",
"  c black",
". c #000083",
"X c #080083",
"o c #0800c5",
"O c blue",
"+ c #0800ff",
"@ c #cdc2ff",
"# c #ffc2ff",
"$ c white",
/* pixels */
"$$$$$$$$$$$$$$$$",
"$$$$$+.X.+.$$$$$",
"$$$.+@$#$@$  $$$",
"$$.$@$@OO$@$o $$",
"$$+@$#$.O#$@$ +$",
"$+@$@$@$@$@$@+ $",
"$.$#$@+OO@$#$@ $",
"$X@$@$@+O$@$@$ $",
"$.+@$#$.O#$@$O $",
"$$.$@$OOOO@$o .$",
"$$$ +@$#$@$O .+$",
"$$$$  o$@+  .X$$",
"$$$$$$  $ +.$$$$",
"$$$$$$$ @ .$$$$$",
"$$$$$$$$  +$$$$$",
"$$$$$$$$$$$$$$$$"
};
