/* XPM */
static char *magick[] = {
/* columns rows colors chars-per-pixel */
"16 16 11 1",
"  c black",
". c #7b7d7b",
"X c #008100",
"o c #00ba00",
"O c green",
"+ c #ee7dee",
"@ c #bdbebd",
"# c #eeb6ee",
"$ c #ffbeff",
"% c #fff6ff",
"& c white",
/* pixels */
"&&&&&     &&&&&&",
"&&&  &&&@%  &&&&",
"&& &%.   .%$ &&&",
"& &% &O&O& %@ &&",
"& % &     & % &&",
" &.&  &&O  &.% &",
" & O &OOoO O @ &",
" & & OOOOX & . &",
" $ O OoOoX O . &",
" %.&  OXX  &.+ &",
"& % &     & # &&",
"& @% &O&O& +. &&",
"&& @%.   .#. &&&",
"&&&  %@..+  &&&&",
"&&&&&     &&&&&&",
"&&&&&&&&&&&&&&&&"
};
