/* XPM */
static char *magick[] = {
/* columns rows colors chars-per-pixel */
"16 16 10 1",
"  c black",
". c #7b7d7b",
"X c #008100",
"o c #00ba00",
"O c #ee7dee",
"+ c #bdbebd",
"@ c #eeb6ee",
"# c #ffbeff",
"$ c #fff6ff",
"% c white",
/* pixels */
"%%%%%     %%%%%%",
"%%%  %%%+$  %%%%",
"%% %$.   .$# %%%",
"% %$       $+ %%",
"% $         $ %%",
" %.   +$X   .$ %",
" %   +oXoX   + %",
" %   XXXXX   . %",
" #   XoXoX   . %",
" $.   XXX   .O %",
"% $         @ %%",
"% +$       O. %%",
"%% +$.   .@. %%%",
"%%%  $+..O  %%%%",
"%%%%%     %%%%%%",
"%%%%%%%%%%%%%%%%"
};
