/* XPM */
static char *magick[] = {
/* columns rows colors chars-per-pixel */
"16 16 8 1",
"  c black",
". c #080000",
"X c #000083",
"o c #0800ff",
"O c #cdc200",
"+ c #ffc200",
"@ c yellow",
"# c white",
/* pixels */
"################",
"#######.  ######",
"######.+@ o#####",
"#####.O@O@ #####",
"##### @ @+ X####",
"#### @   @O ####",
"####.O   O@ o###",
"###.O@   @O@ ###",
"##.O@+. .+@O X##",
"## @O@O O@O@O ##",
"# @+@O@+@O@+@ o#",
"#.O@O@X X@O@O@ #",
"# @O@+@O@+@O@+ #",
"##            X#",
"###XoXoXoXoXoXo#",
"################"
};
