/* XPM */
static char *delete[] = {
/* width height num_colors chars_per_pixel */
"    16    16        2            1",
/* colors */
". c #000000",
"# c #c0c0c0",
/* pixels */
"################",
"################",
"##...#########.#",
"##....######..##",
"###....####..###",
"#####...##..####",
"######.....#####",
"#######...######",
"######.....#####",
"#####...##..####",
"####...####..###",
"###...######.###",
"##....#######.##",
"##...###########",
"###.##########.#",
"################"
};
