/* XPM */
static char *linux[] = {
/* width height num_colors chars_per_pixel */
"    24    27      187            2",
/* colors */
".. c #020204",
".# c #ad830c",
".a c #444448",
".b c #e0c50c",
".c c #c9a309",
".d c #656463",
".e c #bd840c",
".f c #956408",
".g c #d5a30c",
".h c #2e2204",
".i c #6e4904",
".j c #e4e4e4",
".k c #646472",
".l c #838383",
".m c #a4a4b3",
".n c #c4c4c4",
".o c #737279",
".p c #454485",
".q c #9494a3",
".r c #b7b5b2",
".s c #473005",
".t c #d2b20c",
".u c #97730f",
".v c #bd940f",
".w c #141312",
".x c #53535c",
".y c #efcf15",
".z c #343437",
".A c #b6a684",
".B c #7575ad",
".C c #ecb30c",
".D c #ebca45",
".E c #9c858f",
".F c #ab7409",
".G c #766480",
".H c #9796b7",
".I c #9a7254",
".J c #565490",
".K c #d2950c",
".L c #f2c312",
".M c #78570c",
".N c #6865a2",
".O c #ecd5a0",
".P c #eebd12",
".Q c #8686bd",
".R c #141435",
".S c #a6a6bd",
".T c #89747d",
".U c #242458",
".V c #493948",
".W c #4f4f52",
".X c #ba7e07",
".Y c #ba8b08",
".Z c #bbbbcb",
".0 c #5d5b8d",
".1 c #976b0d",
".2 c #ceab5f",
".3 c #ab7a08",
".4 c #e0a40c",
".5 c #f6f6f4",
".6 c #7c7c88",
".7 c #0c0c0e",
".8 c #5b4204",
".9 c #5a3c04",
"#. c #231904",
"## c #7a5a4c",
"#a c #8a764c",
"#b c #aa9678",
"#c c #f3bd0f",
"#d c #6d6d77",
"#e c #353570",
"#f c #eeca19",
"#g c #845805",
"#h c #a68644",
"#i c #8b6405",
"#j c #342304",
"#k c #8c8c9a",
"#l c #ba9450",
"#m c #d59b0d",
"#n c #acacbe",
"#o c #eaeafc",
"#p c #c4c4d8",
"#q c #9c9cac",
"#r c #e4ca10",
"#s c #423024",
"#t c #9a7634",
"#u c #1c1c1c",
"#v c #d4d4e8",
"#w c #c78c0d",
"#x c #b4b4c6",
"#y c #be9a0c",
"#z c #8a7ca4",
"#A c #6c6ba4",
"#B c #8b8ba9",
"#C c #5e5d9f",
"#D c #a16d07",
"#E c #8a5e06",
"#F c #acacae",
"#G c #767686",
"#H c #d6bc80",
"#I c #d2b25c",
"#J c #8a6a5c",
"#K c #a1747d",
"#L c #ba9e6c",
"#M c #c6a661",
"#N c #d0b8cb",
"#O c #5b4539",
"#P c #734e04",
"#Q c #aa8c56",
"#R c #5c5c63",
"#S c #2c2b65",
"#T c #2b2b2e",
"#U c #766e64",
"#V c #debc0c",
"#W c #cecec4",
"#X c #dcdcf1",
"#Y c #937c8d",
"#Z c #aa9c82",
"#0 c #d3ad09",
"#1 c #7b7bad",
"#2 c #8e6e0c",
"#3 c #a27b06",
"#4 c #1c1c3f",
"#5 c #cccce0",
"#6 c #443e78",
"#7 c #3d3d41",
"#8 c #9a9aa3",
"#9 c #e6ac0c",
"a. c #3d3d7b",
"a# c #c2bdb7",
"aa c #948294",
"ab c #e4e4fa",
"ac c #ac7c30",
"ad c #9283af",
"ae c #503604",
"af c #a07838",
"ag c #deb450",
"ah c #ae8234",
"ai c #bba4b5",
"aj c #4e4c8a",
"ak c #665470",
"al c #b0a690",
"am c #4f436f",
"an c #664a44",
"ao c #2a1e04",
"ap c #c0a430",
"aq c #644305",
"ar c #4a4a4f",
"as c #e2b50c",
"at c #726684",
"au c #d2c2a4",
"av c #8e7a88",
"aw c #563e2c",
"ax c #242425",
"ay c #161620",
"az c #9f8369",
"aA c #8a622c",
"aB c #8e8cc7",
"aC c #575654",
"aD c #f2e6cc",
"aE c #ca9c14",
"aF c #4a3610",
"aG c #927e4c",
"aH c #bebed4",
"aI c #fafafc",
"aJ c #be9a5c",
"aK c #e8c420",
"aL c #a17406",
"aM c #c49310",
"aN c #130e04",
"aO c #6a4a2c",
"aP c #9795ce",
"aQ c #bc8c28",
"aR c #d4ac2c",
"aS c #44363c",
"aT c #e2ba64",
"aU c #f3b60c",
"aV c #b57c09",
"aW c #db9d0c",
"aX c #7c5105",
"aY c #392a04",
"aZ c #ae8a0c",
"a0 c #858593",
"a1 c #f2d234",
"a2 c #221a2c",
"a3 c #9b9bce",
"a4 c #ffffff",
/* pixels */
"a4a4a4a4a4a4a4a4a4a4a4a4a4a4a4a4a4a4a4a4a4a4a4a4",
"a4a4a4a4a4a4a4a4a4a4a4a3..aj#pa4a4a4a4a4a4a4a4a4",
"a4a4a4a4a4a4.5a4a4#v.........z#Ca4a4a4a4a4a4a4a4",
"a4a4a4a4a4a4a4a4a4.R........aN...ma4a4a4a4a4a4a4",
"a4a4a4a4a4a4a4a4a4...7.......w...pa4a4a4a4a4a4a4",
"a4a4a4a4a4a4a4a4ab..#X....aI#k....a4a4a4a4a4a4a4",
"a4a4a4a4a4a4a4a4a4....#q#7...5....a4a4a4a4a4a4a4",
"a4a4a4a4a4a4a4a4ab.7#I#c#f#V.j....a4a4a4a4a4a4a4",
"a4a4a4a4a4a4a4a4a4ayaW.L.D.b.4....a4a4a4a4a4a4a4",
"a4a4a4a4a4a4a4a4a4#C#Z#0.K.e.n..#d#Ba4a4a4a4a4a4",
"a4a4a4a4a4a4a4a4#v...j.Za#.jaI#7....a4a4a4a4a4a4",
"a4a4a4a4a4a4a4a4.R.r.5#v.5.5.5aI....#1a4a4a4a4a4",
"a4a4a4a4a4a4a4a4...5.5.5.5aIaI.5......a4a4a4a4a4",
"a4a4a4a4a4a4a4.....5.5.5.5aIaI#W#X#u....a4a4a4a4",
"a4a4a4a4a4a4#p.z.5.5.5.5.5aIaI.5.5.7#T..#ka4a4a4",
"a4a4a4a4a4a4.....5.5.5.5.5.5.5.5aI........a4a4a4",
"a4a4a4a4a4a4..#F.5.5.5.5.5aI.5aI.5.z......a4a4a4",
"a4a4a4a4a4a4.w#v.5.5.5.5.5aIaI.5.5.a......a4a4a4",
"a4.5a4a4a4...8#o.5.5.5.5.5aI.5aI.5#T..ax..a4a4a4",
".5a4a4a4#v#m#caZ.5.5.5.5.5aI.5.5#9ap....aKa4a4a4",
"a4a4a4az.K#c.P#c...n.5.5.5.5aIaI.4#w.s.3#ca4a4a4",
"a4a4#5#c#c.P.P.P.L...5.5.5.5.5aI.F#9.4aU.L.Pa4a4",
"a4a4#5aU.P#c.L.P#c#u.5.5.5aI.5aD.X#c#c#c.L.P.Pa4",
"a4a4#p#c#c.P.P.P#c.4.5.5.5aI.7..#w#c#c#c.P.L.Ga4",
"a4a4#5.e#m.4aU.P.P.KaN...........e#c#c#9.Fa4a4a4",
"a4a4a4#p.qaj#E.FaV#g#S.6a0a0.l.6#E.X.X#Ra4a4a4a4",
"a4a4a4.5#X#v#p#n#q.q.q#x#v#v#v#5#na0#ka4a4a4a4a4"
};
