/* XPM */
static char *win[] = {
/* width height num_colors chars_per_pixel */
"    20    15      172            2",
/* colors */
".. c #000000",
".# c #000100",
".a c #000200",
".b c #000300",
".c c #000400",
".d c #000638",
".e c #000700",
".f c #000c00",
".g c #001000",
".h c #001fa3",
".i c #002601",
".j c #002900",
".k c #006a2a",
".l c #007dfe",
".m c #010000",
".n c #020613",
".o c #030000",
".p c #040200",
".q c #044f3f",
".r c #047dfd",
".s c #050300",
".t c #0594fe",
".u c #060000",
".v c #067dff",
".w c #067efc",
".x c #070000",
".y c #080000",
".z c #081f12",
".A c #0b1906",
".B c #0d0000",
".C c #0de560",
".D c #0e0000",
".E c #0f458d",
".F c #0f4f85",
".G c #100000",
".H c #1169fc",
".I c #1181fc",
".J c #120000",
".K c #1282fe",
".L c #149ffe",
".M c #153ac1",
".N c #1576fe",
".O c #160000",
".P c #16e96c",
".Q c #195ef9",
".R c #2088fc",
".S c #211200",
".T c #2186fd",
".U c #250300",
".V c #27ed5a",
".W c #28e932",
".X c #2b0715",
".Y c #2c9254",
".Z c #2c9efe",
".0 c #300013",
".1 c #36f274",
".2 c #3d97fe",
".3 c #3dc0f0",
".4 c #3e7afc",
".5 c #3f82fe",
".6 c #48cd00",
".7 c #4ff040",
".8 c #51f231",
".9 c #51f340",
"#. c #542300",
"## c #5891fe",
"#a c #5bc2ed",
"#b c #5c2102",
"#c c #5daaff",
"#d c #60f337",
"#e c #66f853",
"#f c #6c7bfa",
"#g c #7ac2f2",
"#h c #7f5402",
"#i c #87a200",
"#j c #8fe6fb",
"#k c #94420a",
"#l c #976000",
"#m c #a04d10",
"#n c #a5cdff",
"#o c #aff3ff",
"#p c #b27308",
"#q c #b4fbff",
"#r c #b8f6ff",
"#s c #b9f6ff",
"#t c #bee2ff",
"#u c #c0e29b",
"#v c #c8fdff",
"#w c #cea549",
"#x c #d6feff",
"#y c #d6ffff",
"#z c #dafeff",
"#A c #defeff",
"#B c #dfffff",
"#C c #e2fdff",
"#D c #e2fffe",
"#E c #e7ffeb",
"#F c #e8fdfd",
"#G c #e8ffff",
"#H c #e9ffff",
"#I c #eafffe",
"#J c #ebffff",
"#K c #ecfffb",
"#L c #ecffff",
"#M c #edffff",
"#N c #eefcd4",
"#O c #efffff",
"#P c #f0ffff",
"#Q c #f1fffe",
"#R c #f1ffff",
"#S c #f2ffff",
"#T c #f3e69d",
"#U c #f3fffd",
"#V c #f3fffe",
"#W c #f3ffff",
"#X c #f4fffc",
"#Y c #f4fffd",
"#Z c #f4fffe",
"#0 c #f4ffff",
"#1 c #f5fffe",
"#2 c #f5ffff",
"#3 c #f6bd5f",
"#4 c #f6fff7",
"#5 c #f6fffd",
"#6 c #f6ffff",
"#7 c #f7fff2",
"#8 c #f7fffe",
"#9 c #f7ffff",
"a. c #f8fff3",
"a# c #f8ffff",
"aa c #f9fffe",
"ab c #f9ffff",
"ac c #fafffe",
"ad c #faffff",
"ae c #fb990d",
"af c #fbfff3",
"ag c #fbffff",
"ah c #fcfef2",
"ai c #fcffff",
"aj c #ff7300",
"ak c #ff7403",
"al c #ff7500",
"am c #ff7d00",
"an c #ff8405",
"ao c #ff8601",
"ap c #ff8c05",
"aq c #ff8f01",
"ar c #ffa704",
"as c #ffac27",
"at c #ffad03",
"au c #ffbd08",
"av c #ffbfad",
"aw c #ffc30e",
"ax c #ffc56b",
"ay c #ffc5a8",
"az c #ffc7a3",
"aA c #ffcc47",
"aB c #ffdbb5",
"aC c #ffde00",
"aD c #ffdf00",
"aE c #ffe3af",
"aF c #ffe500",
"aG c #ffe700",
"aH c #ffea00",
"aI c #ffed99",
"aJ c #ffed9a",
"aK c #ffef00",
"aL c #fff300",
"aM c #fff403",
"aN c #fff500",
"aO c #fff800",
"aP c #fff802",
/* pixels */
"#W#U#0#6a#aa#9#8#2#9ad#2aga#aba#agadabac",
"#V#0#0#2a##8ada#ad#9a##O#p.f.c......#l#S",
"#2#.#R#3#0#6#0#2#W#E.z.........i.b.....s",
"#Q#W#S#W.x#x...n......aeapal...1.9#e.e.y",
"#VaI#2aA#6#S#Z#g#7#w..aoanam...V.8#d.k.p",
"#X#4#Y#0av#1asazaw...Maramaj...7.W.C...o",
"#Z#9#Zaxaf#2aJa.au.S..ataqak..#i.6.P...o",
"#U#N#S#Wah#1aEayaB..#u.m...............O",
"#W#S#M#v#b#D.A#m.a.....h.w.H..aGaHaK.u.y",
"#W#f#S#F#M#A#B.0#q.3...t.l.r.gaDaCaF...D",
"#0#W#Z#R.Z#G.4#n.Q.....K.I.v..aPaOaO.#.B",
"#S###0#c#W#P#P#C#J#k...R.T.N..aLaMaN...J",
"#W#W#W#W.5#L.2#t.L...d.Y...............G",
"#W#s#M#h#K#I#T#H.U.........E#o#y#r.F...x",
"#W#W#2#2#a#z.q.X.j..#j#S#5aia#aba#a##6#L"
};
